<?xml version="1.0" encoding="utf-8"?>
<!-- Generator: Adobe Illustrator 19.1.0, SVG Export Plug-In . SVG Version: 6.00 Build 0)  -->
<svg version="1.1" id="Rocket" xmlns="http://www.w3.org/2000/svg" xmlns:xlink="http://www.w3.org/1999/xlink" x="0px" y="0px"
	 viewBox="0 0 1249.8 1243.2" style="enable-background:new 0 0 1249.8 1243.2;" xml:space="preserve">
<style type="text/css">
	.st0{fill:#33FFE7;stroke:#292D33;stroke-width:15.6893;stroke-miterlimit:10;}
	.st1{fill:#2ECCE8;stroke:#292D33;stroke-width:15.6893;stroke-miterlimit:10;}
	.st2{fill:#41AFFF;stroke:#292D33;stroke-width:15.6893;stroke-miterlimit:10;}
	.st3{fill:#292D33;}
	.st4{fill:#33FFE7;stroke:#292D33;stroke-width:10.8046;stroke-miterlimit:10;}
	.st5{fill:#2ECCE8;stroke:#292D33;stroke-width:10.8046;stroke-miterlimit:10;}
	.st6{fill:#41AFFF;stroke:#292D33;stroke-width:10.8046;stroke-miterlimit:10;}
	.st7{fill:#33FFE7;stroke:#292D33;stroke-width:12.741;stroke-miterlimit:10;}
	.st8{fill:#2ECCE8;stroke:#292D33;stroke-width:12.741;stroke-miterlimit:10;}
	.st9{fill:#41AFFF;stroke:#292D33;stroke-width:12.741;stroke-miterlimit:10;}
</style>
<g>
	<path d="M220.8,446.5"/>
	<path class="st0" d="M212,816l-81.6,106.1c-1,1.2-0.8,3,0.3,4.1l192.2,192.2c1.1,1.1,2.7,1.2,4,0.4l111.1-76.1L212,816z"/>
	<path class="st1" d="M132.1,1007.5L240.6,1116c1.3,1.3,1.5,3.1,0.5,4c-18.9,16.5-176.9,152.5-223.8,105.6
		c-46.9-46.9,94-200.6,110.8-218.6C129.1,1006,130.9,1006.3,132.1,1007.5z"/>
	<path class="st1" d="M268.7,741.4l-229.4,1.2c-13,0.1-20.4-14.7-12.6-25.1l166.1-221.5c2.9-3.8,7.3-6.1,12.1-6.3l324.6-8.5
		L268.7,741.4z M517.4,990.1l-1.2,229.4c-0.1,13,14.7,20.4,25.1,12.6l221.5-166.1c3.8-2.9,6.1-7.3,6.3-12.1l8.5-324.6L517.4,990.1z"
		/>
	<path class="st2" d="M193.6,798.3L464.3,1069c5.3,5.3,13.6,6.1,19.8,2c97.2-64.6,819.1-562.2,753.7-1033.5
		c-1.9-13.8-12.9-24.6-26.8-26.2C713-48.2,250.4,682,191.3,779.1C187.5,785.3,188.5,793.2,193.6,798.3z"/>
	<g>
		<path class="st3" d="M478,775.6c9.3,9.3,17.6,14.3,24.8,15c7.2,0.7,13.1-1.2,17.7-5.8c4.2-4.2,6.1-9.1,5.5-14.8
			c-0.5-5.6-2.9-12.5-7.1-20.6l-9.2-17.7c-5.1-9.7-9.3-18.9-12.5-27.6c-3.3-8.7-5.1-17-5.5-25c-0.4-8,0.7-15.8,3.6-23.3
			c2.8-7.6,7.9-15,15.3-22.4c14.8-14.8,32-20.9,51.8-18.3c19.8,2.5,39.6,13.8,59.5,33.6c7.6,7.6,14,15.1,19.4,22.5
			c5.4,7.5,9.2,14.6,11.6,21.4c2.4,6.8,3.3,13.1,2.8,18.9s-2.9,10.8-7.1,15c-4,4-8.6,6.6-13.7,7.6c-5.1,1.1-10,1.3-14.8,0.8
			c-1.2-6.9-4.2-14.6-9-23.2c-4.8-8.6-11.1-16.9-19-24.8c-8.4-8.4-16-13.4-22.7-14.8c-6.7-1.4-12-0.1-16.1,4
			c-3.5,3.5-4.9,7.5-4.1,12c0.8,4.5,3,10.5,6.7,18.1l9.5,19c5.4,11.1,9.7,21.4,12.7,30.8c3,9.5,4.5,18.4,4.6,26.8
			c0.1,8.4-1.5,16.3-4.7,23.7c-3.3,7.5-8.3,14.6-15.2,21.5c-7.4,7.4-15.6,12.7-24.5,15.8c-9,3.2-18.5,4.1-28.6,2.8
			c-10.1-1.3-20.6-4.9-31.4-10.8c-10.8-5.9-21.7-14.3-32.6-25.2c-8.1-8.1-14.9-16.2-20.4-24.4c-5.5-8.2-9.6-16-12.1-23.5
			c-2.6-7.5-3.5-14.5-2.8-21c0.7-6.5,3.3-12,7.9-16.6c4.7-4.7,10.1-7.3,16-7.8c5.9-0.4,11.5,0,16.7,1.5c0.9,8.6,3.4,18,7.5,28.1
			C462.5,757.1,469,766.6,478,775.6z"/>
	</g>
	<path class="st0" d="M908.5,453.6c-31.4,31.4-82.2,31.4-113.6,0s-31.4-82.2,0-113.6s82.2-31.4,113.6,0
		C939.8,371.4,939.8,422.3,908.5,453.6z M946.3,302.1c-52.3-52.3-137.1-52.3-189.4,0s-52.3,137.1,0,189.4s137.1,52.3,189.4,0
		C998.6,439.2,998.6,354.4,946.3,302.1z"/>
</g>
<g>
	
		<text transform="matrix(1 -9.060000e-003 9.060000e-003 1 397.0921 2974.6458)" class="st3" style="font-family:'BalooBhai2-Regular'; font-size:521.7682px; letter-spacing:-36;">ssebs</text>
	<g>
		<path d="M-92.4,2467.2"/>
		<path class="st4" d="M-98.2,2721.6l-56.2,73.1c-0.7,0.9-0.6,2.1,0.2,2.8l132.4,132.4c0.7,0.7,1.9,0.8,2.7,0.3l76.5-52.4
			L-98.2,2721.6z"/>
		<path class="st5" d="M-153.2,2853.6l74.7,74.7c0.9,0.9,1.1,2.1,0.4,2.8c-13,11.4-121.8,105-154.1,72.7
			c-32.3-32.3,64.7-138.2,76.3-150.6C-155.3,2852.5-154.1,2852.7-153.2,2853.6z"/>
		<path class="st5" d="M-59.2,2670.3l-158,0.8c-8.9,0-14.1-10.1-8.7-17.3l114.4-152.6c2-2.6,5.1-4.2,8.4-4.3l223.6-5.9L-59.2,2670.3
			z M112.1,2841.6l-0.8,158c0,8.9,10.1,14.1,17.3,8.7l152.6-114.4c2.6-2,4.2-5.1,4.3-8.4l5.9-223.6L112.1,2841.6z"/>
		<path class="st6" d="M-110.9,2709.5l186.4,186.4c3.6,3.6,9.3,4.2,13.6,1.4c66.9-44.5,564.1-387.1,519-711.7
			c-1.3-9.5-8.9-16.9-18.5-18.1c-342.9-41-661.5,461.9-702.2,528.7C-115.1,2700.5-114.4,2706-110.9,2709.5z"/>
		
			<text transform="matrix(0.7071 0.7071 -0.7071 0.7071 19.0938 2668.2375)" class="st3" style="font-family:'BalooBhai2-Bold'; font-size:256.7978px;">S</text>
		<path class="st4" d="M381.2,2472.1c-21.6,21.6-56.6,21.6-78.2,0c-21.6-21.6-21.6-56.6,0-78.2c21.6-21.6,56.6-21.6,78.2,0
			C402.8,2415.5,402.8,2450.5,381.2,2472.1z M407.3,2367.8c-36-36-94.4-36-130.4,0c-36,36-36,94.4,0,130.4c36,36,94.4,36,130.4,0
			C443.3,2462.2,443.3,2403.8,407.3,2367.8z"/>
	</g>
</g>
<g>
	
		<text transform="matrix(1 -9.060000e-003 9.060000e-003 1 2254.1458 3249.7246)" class="st3" style="font-family:'BalooBhai2-Regular'; font-size:420.9451px; letter-spacing:-29;">ssebs</text>
	<g>
		<path d="M2364.5,2292.5"/>
		<path class="st7" d="M2357.6,2592.6l-66.3,86.2c-0.8,1-0.7,2.4,0.2,3.3l156.1,156.1c0.9,0.9,2.2,1,3.2,0.3l90.2-61.8
			L2357.6,2592.6z"/>
		<path class="st8" d="M2292.7,2748.1l88.1,88.1c1.1,1.1,1.2,2.5,0.4,3.3c-15.3,13.4-143.6,123.8-181.7,85.7
			c-38.1-38.1,76.3-162.9,90-177.6C2290.3,2746.9,2291.7,2747.1,2292.7,2748.1z"/>
		<path class="st8" d="M2403.6,2532l-186.3,1c-10.5,0.1-16.6-12-10.3-20.4l134.9-179.9c2.3-3.1,6-5,9.9-5.1l263.6-6.9L2403.6,2532z
			 M2605.6,2734l-1,186.3c-0.1,10.5,12,16.6,20.4,10.3l179.9-134.9c3.1-2.3,5-6,5.1-9.9l6.9-263.6L2605.6,2734z"/>
		<path class="st9" d="M2342.7,2578.3l219.8,219.8c4.3,4.3,11,5,16.1,1.6c78.9-52.5,665.2-456.5,612-839.3
			c-1.6-11.2-10.5-19.9-21.8-21.3c-404.4-48.3-780.1,544.7-828.1,623.5C2337.7,2567.6,2338.5,2574.1,2342.7,2578.3z"/>
		
			<text transform="matrix(0.7071 0.7071 -0.7071 0.7071 2495.9299 2529.5935)" class="st3" style="font-family:'BalooBhai2-Bold'; font-size:302.8209px;">S</text>
		<path class="st7" d="M2922.9,2298.3c-25.5,25.5-66.8,25.5-92.3,0c-25.5-25.5-25.5-66.8,0-92.3c25.5-25.5,66.8-25.5,92.3,0
			C2948.4,2231.5,2948.4,2272.8,2922.9,2298.3z M2953.7,2175.3c-42.5-42.5-111.3-42.5-153.8,0s-42.5,111.3,0,153.8
			s111.3,42.5,153.8,0S2996.2,2217.8,2953.7,2175.3z"/>
	</g>
</g>
<text transform="matrix(1 -9.060000e-003 9.060000e-003 1 2149.0479 716.5658)" class="st3" style="font-family:'BalooBhai2-Regular'; font-size:521.7682px; letter-spacing:-36;">ssebs</text>
</svg>
